<?xml version="1.0" standalone="no"?>
<!DOCTYPE svg PUBLIC "-//W3C//DTD SVG 20010904//EN"
 "http://www.w3.org/TR/2001/REC-SVG-20010904/DTD/svg10.dtd">
<svg version="1.0" xmlns="http://www.w3.org/2000/svg"
 width="1080.000000pt" height="1080.000000pt" viewBox="0 0 1080.000000 1080.000000"
 preserveAspectRatio="xMidYMid meet">

<g transform="translate(0.000000,1080.000000) scale(0.100000,-0.100000)"
fill="#000000" stroke="none">
<path d="M4090 7036 c-8 -11 -11 -96 -8 -329 l3 -315 165 -170 165 -170 262
-1 c144 -1 264 -4 266 -8 2 -5 -28 -63 -67 -131 -39 -67 -107 -186 -151 -265
-43 -78 -165 -286 -271 -462 -105 -176 -197 -331 -204 -345 -13 -24 -12 -24 6
-10 10 8 55 47 99 86 44 38 112 97 151 130 39 32 133 113 209 179 77 66 254
219 395 340 141 121 337 290 436 376 98 85 244 211 324 279 80 68 186 160 235
205 50 44 157 139 238 209 81 71 146 132 145 137 -2 4 -63 69 -136 143 l-133
136 -1058 0 c-910 0 -1060 -2 -1071 -14z m2060 -298 l0 -203 -207 -170 c-113
-93 -256 -211 -317 -261 -301 -248 -951 -772 -954 -769 -5 5 102 189 522 897
80 136 146 250 146 253 0 3 -259 5 -575 5 l-575 0 0 225 0 225 980 0 980 0 0
-202z"/>
<path d="M6310 6528 c-124 -106 -242 -206 -262 -223 -36 -30 -73 -88 -255
-405 -53 -91 -119 -205 -148 -255 -29 -49 -105 -182 -170 -295 -65 -113 -153
-264 -197 -336 -43 -72 -78 -134 -78 -138 0 -3 227 -6 505 -6 278 0 505 -1
506 -2 0 -2 3 -103 6 -225 l5 -223 -926 0 -926 0 0 170 0 170 141 155 c77 85
138 155 135 155 -8 0 -170 -136 -346 -290 -85 -74 -197 -171 -248 -214 -51
-43 -90 -81 -88 -83 3 -3 61 9 130 26 181 45 167 51 165 -72 l-1 -104 173
-171 174 -171 1010 2 1010 2 2 315 3 315 -175 178 -175 177 -220 0 c-121 0
-220 2 -220 4 0 6 391 679 617 1063 l83 143 -2 265 -3 266 -225 -193z"/>
</g>
</svg>
