<svg xmlns="http://www.w3.org/2000/svg" xmlns:xlink="http://www.w3.org/1999/xlink" id="svg" version="1.1" viewBox="145.93 138.26 108.89 123.17"><g id="svgg"><path id="path0" d="M150.974 139.352 C 150.617 140.683,150.706 162.084,151.073 163.047 C 151.255 163.528,152.630 165.197,154.128 166.756 C 155.626 168.315,158.155 171.017,159.747 172.759 L 162.642 175.926 172.988 175.926 C 180.122 175.926,183.333 176.050,183.333 176.324 C 183.333 177.037,178.346 185.165,177.903 185.175 C 177.498 185.185,176.369 187.094,172.868 193.693 C 172.060 195.215,171.175 196.631,170.902 196.841 C 170.628 197.051,170.230 197.639,170.018 198.148 C 169.805 198.657,169.423 199.401,169.168 199.801 C 168.361 201.064,167.207 203.067,165.789 205.662 C 165.034 207.045,164.131 208.466,163.782 208.820 C 163.433 209.173,162.815 210.122,162.407 210.929 C 162.000 211.736,161.458 212.619,161.204 212.891 C 160.949 213.163,160.741 213.538,160.741 213.724 C 160.741 213.909,160.109 215.106,159.337 216.382 C 158.564 217.659,157.748 219.324,157.523 220.082 L 157.113 221.460 159.760 219.099 C 162.508 216.647,166.297 213.386,185.926 196.583 C 192.343 191.090,198.938 185.404,200.582 183.946 C 202.226 182.489,205.726 179.443,208.360 177.177 C 222.305 165.181,225.723 162.222,232.689 156.111 C 236.869 152.444,240.368 149.178,240.465 148.852 C 240.583 148.458,239.005 146.627,235.755 143.389 L 230.868 138.519 191.033 138.519 L 151.198 138.519 150.974 139.352 M204.135 142.963 L 228.148 142.963 228.148 150.295 L 228.148 157.627 226.759 158.938 C 225.995 159.659,224.037 161.312,222.407 162.612 C 220.778 163.912,218.528 165.759,217.407 166.718 C 214.693 169.040,199.567 181.413,195.737 184.444 C 194.065 185.769,188.231 190.480,182.774 194.914 C 172.378 203.361,171.962 203.635,173.448 201.048 C 177.288 194.361,182.679 185.188,192.844 168.044 C 195.354 163.811,197.407 160.270,197.407 160.174 C 197.407 160.078,187.907 160.000,176.296 160.000 L 155.185 160.000 155.185 151.543 C 155.185 146.892,155.310 142.953,155.463 142.791 C 155.616 142.628,161.226 142.600,167.931 142.729 C 174.635 142.858,190.927 142.963,204.135 142.963 M241.738 151.387 C 241.574 151.641,239.491 153.501,237.109 155.521 C 225.884 165.037,222.780 167.846,221.846 169.327 C 220.900 170.829,215.190 180.639,208.414 192.407 C 204.062 199.966,199.175 208.377,195.864 214.008 C 194.268 216.722,192.963 219.012,192.963 219.097 C 192.963 219.183,201.338 219.296,211.574 219.348 L 230.185 219.444 230.185 227.963 L 230.185 236.481 195.926 236.481 L 161.667 236.481 161.577 230.185 L 161.488 223.889 165.837 219.125 C 172.725 211.579,172.057 211.929,160.926 221.705 C 159.500 222.958,157.583 224.328,156.667 224.750 C 155.750 225.173,153.927 226.610,152.616 227.944 C 151.305 229.279,150.086 230.370,149.907 230.370 C 149.249 230.370,145.926 233.539,145.926 234.167 C 145.926 234.952,146.325 234.966,148.640 234.264 C 149.624 233.966,151.624 233.469,153.084 233.160 C 154.545 232.851,156.116 232.494,156.574 232.367 C 157.851 232.013,157.851 236.988,156.574 237.935 C 156.116 238.275,155.949 238.452,156.204 238.329 C 156.458 238.205,156.667 238.281,156.667 238.497 C 156.667 238.712,156.917 238.889,157.222 238.889 C 157.623 238.889,157.778 239.299,157.778 240.359 C 157.778 241.505,157.899 241.782,158.327 241.618 C 158.692 241.478,160.783 243.337,164.582 247.180 C 169.414 252.068,170.358 252.868,170.745 252.402 C 171.144 251.922,175.920 251.852,208.193 251.852 L 245.185 251.852 245.185 240.729 C 245.185 231.400,245.271 229.573,245.717 229.402 C 246.702 229.024,245.803 227.929,239.346 221.638 L 232.951 215.408 224.403 215.515 L 215.856 215.621 216.890 213.829 C 217.458 212.843,218.724 210.747,219.702 209.171 C 220.681 207.594,221.481 206.225,221.481 206.129 C 221.481 206.033,223.249 202.906,225.410 199.181 C 227.570 195.455,231.509 188.657,234.162 184.074 C 236.816 179.491,239.718 174.547,240.611 173.088 L 242.235 170.435 242.136 160.680 C 242.081 155.315,241.903 151.134,241.738 151.387 " stroke="none" fill="#060606" fill-rule="evenodd"/><path id="path1" d="M201.759 138.421 C 202.829 138.496,204.579 138.496,205.648 138.421 C 206.718 138.346,205.843 138.285,203.704 138.285 C 201.565 138.285,200.690 138.346,201.759 138.421 M217.500 138.413 C 218.060 138.498,218.977 138.498,219.537 138.413 C 220.097 138.329,219.639 138.259,218.519 138.259 C 217.398 138.259,216.940 138.329,217.500 138.413 M155.556 151.292 L 155.556 159.664 176.871 159.554 C 195.700 159.457,198.169 159.509,198.041 160.002 C 197.960 160.308,196.277 163.225,194.301 166.483 C 192.324 169.741,189.576 174.324,188.194 176.667 C 186.812 179.009,183.762 184.176,181.415 188.148 C 176.331 196.756,173.686 201.481,173.955 201.481 C 174.062 201.481,175.489 200.365,177.125 199.001 C 178.760 197.637,181.475 195.428,183.158 194.094 C 184.840 192.759,188.270 190.000,190.779 187.963 C 193.288 185.926,196.779 183.093,198.538 181.667 C 200.297 180.241,204.459 176.824,207.788 174.074 C 211.117 171.324,215.275 167.907,217.029 166.481 C 218.783 165.056,221.919 162.480,223.998 160.757 L 227.778 157.625 227.778 150.532 L 227.778 143.440 206.389 143.221 C 194.625 143.100,178.375 142.983,170.278 142.961 L 155.556 142.921 155.556 151.292 M237.778 152.133 C 236.250 153.464,231.750 157.428,227.778 160.941 C 223.806 164.455,218.915 168.722,216.909 170.424 C 210.396 175.951,206.854 178.994,201.663 183.519 C 196.724 187.823,194.162 190.029,186.396 196.667 C 184.370 198.398,179.825 202.315,176.296 205.370 C 172.767 208.426,168.593 212.009,167.020 213.333 C 158.041 220.894,157.246 221.721,157.719 223.000 C 157.989 223.730,158.131 223.666,160.022 221.954 C 163.811 218.524,172.707 211.111,173.033 211.111 C 173.213 211.111,173.181 211.444,172.963 211.852 C 172.745 212.259,172.442 212.593,172.289 212.593 C 172.136 212.593,171.210 213.551,170.230 214.722 C 169.250 215.894,167.589 217.769,166.538 218.889 C 165.488 220.009,164.000 221.639,163.231 222.511 L 161.834 224.096 161.935 230.104 L 162.037 236.111 196.019 236.206 L 230.000 236.300 230.000 228.209 L 230.000 220.119 220.495 219.874 C 215.268 219.740,206.756 219.630,201.579 219.630 L 192.168 219.630 193.372 217.500 C 194.035 216.329,196.101 212.787,197.963 209.630 C 201.910 202.939,204.935 197.704,208.876 190.741 C 211.925 185.354,215.520 179.212,219.931 171.852 C 222.914 166.874,221.992 167.821,232.736 158.704 C 241.836 150.982,241.962 150.851,241.034 150.100 C 240.676 149.809,239.859 150.319,237.778 152.133 M234.074 216.481 C 234.765 217.194,235.414 217.778,235.516 217.778 C 235.618 217.778,235.135 217.194,234.444 216.481 C 233.753 215.769,233.105 215.185,233.003 215.185 C 232.901 215.185,233.383 215.769,234.074 216.481 M172.593 255.370 C 173.905 256.694,175.062 257.778,175.164 257.778 C 175.266 257.778,174.275 256.694,172.963 255.370 C 171.651 254.046,170.494 252.963,170.392 252.963 C 170.290 252.963,171.280 254.046,172.593 255.370 " stroke="none" fill="#fbfbfb" fill-rule="evenodd"/><path id="path2" d="M155.344 151.296 C 155.344 155.981,155.397 157.847,155.462 155.442 C 155.527 153.037,155.526 149.204,155.461 146.924 C 155.397 144.643,155.344 146.611,155.344 151.296 M178.246 143.229 C 178.809 143.314,179.642 143.312,180.098 143.224 C 180.553 143.136,180.093 143.066,179.074 143.069 C 178.056 143.072,177.683 143.144,178.246 143.229 M209.907 143.240 C 213.218 143.301,218.634 143.301,221.944 143.240 C 225.255 143.179,222.546 143.128,215.926 143.128 C 209.306 143.128,206.597 143.179,209.907 143.240 M240.741 149.608 C 240.741 149.799,240.922 150.068,241.143 150.205 C 241.365 150.342,241.457 150.793,241.349 151.206 C 241.209 151.741,241.267 151.844,241.549 151.562 C 242.005 151.106,241.648 149.259,241.104 149.259 C 240.904 149.259,240.741 149.416,240.741 149.608 M239.051 150.833 L 237.963 152.037 239.167 150.949 C 239.829 150.351,240.370 149.809,240.370 149.746 C 240.370 149.459,240.065 149.711,239.051 150.833 M236.458 153.056 L 235.370 154.259 236.574 153.171 C 237.236 152.573,237.778 152.031,237.778 151.968 C 237.778 151.682,237.472 151.934,236.458 153.056 M242.812 152.137 C 242.133 152.293,242.115 152.645,242.344 161.298 L 242.583 170.296 237.736 178.574 C 235.070 183.127,232.319 187.798,231.623 188.955 C 230.927 190.112,229.055 193.362,227.463 196.177 C 225.871 198.993,222.791 204.335,220.618 208.048 C 218.445 211.762,216.667 214.970,216.667 215.178 C 216.667 215.845,229.811 215.674,230.370 215.000 C 230.624 214.694,231.026 214.444,231.264 214.444 C 231.503 214.444,232.150 213.569,232.703 212.500 C 234.252 209.504,235.951 206.540,236.472 205.926 C 236.731 205.620,238.077 203.287,239.464 200.741 C 240.851 198.194,242.760 194.861,243.707 193.333 C 244.655 191.806,246.233 189.056,247.216 187.222 C 248.198 185.389,249.368 183.389,249.816 182.778 C 251.849 180.006,251.853 179.980,251.839 169.741 L 251.826 160.185 247.672 156.080 C 244.660 153.103,243.324 152.019,242.812 152.137 M237.199 154.907 L 236.111 156.111 237.315 155.023 C 237.977 154.425,238.519 153.883,238.519 153.820 C 238.519 153.533,238.213 153.785,237.199 154.907 M230.532 158.241 L 229.444 159.444 230.648 158.357 C 231.310 157.758,231.852 157.217,231.852 157.153 C 231.852 156.867,231.546 157.119,230.532 158.241 M232.014 159.352 L 230.926 160.556 232.130 159.468 C 232.792 158.869,233.333 158.328,233.333 158.264 C 233.333 157.978,233.028 158.230,232.014 159.352 M196.852 159.530 C 197.259 159.632,197.715 159.904,197.865 160.135 C 198.037 160.402,198.139 160.319,198.142 159.907 C 198.147 159.436,197.871 159.271,197.130 159.302 C 196.349 159.335,196.284 159.388,196.852 159.530 M227.575 160.833 L 226.111 162.407 227.685 160.943 C 229.149 159.582,229.429 159.259,229.149 159.259 C 229.089 159.259,228.380 159.968,227.575 160.833 M229.239 161.759 L 227.963 163.148 229.352 161.872 C 230.645 160.684,230.911 160.370,230.628 160.370 C 230.566 160.370,229.941 160.995,229.239 161.759 M223.684 164.352 L 222.407 165.741 223.796 164.464 C 225.089 163.276,225.355 162.963,225.073 162.963 C 225.011 162.963,224.386 163.588,223.684 164.352 M220.903 166.759 L 219.815 167.963 221.019 166.875 C 221.681 166.277,222.222 165.735,222.222 165.671 C 222.222 165.385,221.917 165.637,220.903 166.759 M213.125 173.426 L 212.037 174.630 213.241 173.542 C 213.903 172.944,214.444 172.402,214.444 172.338 C 214.444 172.052,214.139 172.304,213.125 173.426 M210.532 175.648 L 209.444 176.852 210.648 175.764 C 211.310 175.166,211.852 174.624,211.852 174.560 C 211.852 174.274,211.546 174.526,210.532 175.648 M165.278 176.202 C 164.776 176.290,164.444 176.613,164.444 177.015 C 164.444 178.092,170.548 184.323,172.107 184.838 C 173.502 185.298,178.245 185.076,178.425 184.542 C 178.478 184.387,179.540 182.542,180.785 180.444 C 182.030 178.346,182.988 176.577,182.913 176.513 C 182.701 176.330,166.209 176.040,165.278 176.202 M205.165 180.278 L 203.889 181.667 205.278 180.390 C 206.571 179.202,206.837 178.889,206.554 178.889 C 206.492 178.889,205.867 179.514,205.165 180.278 M196.458 187.870 L 195.370 189.074 196.574 187.986 C 197.236 187.388,197.778 186.846,197.778 186.783 C 197.778 186.496,197.472 186.748,196.458 187.870 M188.680 194.537 L 187.593 195.741 188.796 194.653 C 189.918 193.639,190.170 193.333,189.884 193.333 C 189.820 193.333,189.279 193.875,188.680 194.537 M178.499 203.241 L 177.222 204.630 178.611 203.353 C 179.904 202.165,180.170 201.852,179.887 201.852 C 179.826 201.852,179.201 202.477,178.499 203.241 M170.350 210.278 L 169.074 211.667 170.463 210.390 C 171.756 209.202,172.022 208.889,171.739 208.889 C 171.677 208.889,171.052 209.514,170.350 210.278 M171.429 212.315 C 170.721 212.977,170.514 213.209,170.970 212.832 C 171.425 212.454,171.968 212.250,172.176 212.379 C 172.385 212.508,172.736 212.275,172.957 211.862 C 173.551 210.753,172.890 210.949,171.429 212.315 M162.573 216.944 L 161.296 218.333 162.685 217.057 C 163.978 215.869,164.244 215.556,163.962 215.556 C 163.900 215.556,163.275 216.181,162.573 216.944 M167.569 217.500 L 166.481 218.704 167.685 217.616 C 168.807 216.602,169.059 216.296,168.773 216.296 C 168.709 216.296,168.168 216.838,167.569 217.500 M163.495 218.981 L 162.407 220.185 163.611 219.097 C 164.273 218.499,164.815 217.957,164.815 217.894 C 164.815 217.608,164.509 217.859,163.495 218.981 M159.427 219.722 L 157.963 221.296 159.537 219.832 C 161.001 218.471,161.281 218.148,161.001 218.148 C 160.941 218.148,160.232 218.856,159.427 219.722 M220.463 219.905 C 222.245 219.973,225.162 219.973,226.944 219.905 C 228.727 219.838,227.269 219.782,223.704 219.782 C 220.139 219.782,218.681 219.838,220.463 219.905 M160.903 221.204 L 159.815 222.407 161.019 221.320 C 162.141 220.306,162.392 220.000,162.106 220.000 C 162.043 220.000,161.501 220.542,160.903 221.204 M156.298 221.838 C 156.307 222.846,158.033 224.101,158.533 223.465 C 159.030 222.834,159.021 222.819,158.426 223.286 C 157.765 223.804,157.627 223.563,157.674 221.971 C 157.681 221.731,157.374 221.558,156.991 221.587 C 156.609 221.616,156.297 221.729,156.298 221.838 M246.204 229.905 C 245.604 230.043,245.556 230.886,245.556 241.138 L 245.556 252.222 208.562 252.222 C 165.274 252.222,169.400 251.586,174.842 257.418 L 178.461 261.296 216.334 261.396 C 246.610 261.475,254.267 261.401,254.505 261.025 C 254.669 260.767,254.806 255.398,254.809 249.095 L 254.815 237.634 250.833 233.695 C 248.155 231.046,246.640 229.805,246.204 229.905 " stroke="none" fill="#c4c4c4" fill-rule="evenodd"/><path id="path3" d="M159.537 142.869 C 161.829 142.934,165.579 142.934,167.870 142.869 C 170.162 142.804,168.287 142.751,163.704 142.751 C 159.120 142.751,157.245 142.804,159.537 142.869 M227.934 150.370 C 227.934 154.546,227.988 156.255,228.054 154.167 C 228.120 152.079,228.120 148.662,228.054 146.574 C 227.988 144.486,227.934 146.194,227.934 150.370 M238.680 150.833 L 237.593 152.037 238.796 150.949 C 239.458 150.351,240.000 149.809,240.000 149.746 C 240.000 149.459,239.694 149.711,238.680 150.833 M242.063 151.111 C 242.374 152.256,242.442 152.334,242.973 152.157 C 243.243 152.067,243.109 151.680,242.606 151.100 L 241.813 150.185 242.063 151.111 M235.536 153.611 L 234.259 155.000 235.648 153.724 C 236.941 152.536,237.207 152.222,236.925 152.222 C 236.863 152.222,236.238 152.847,235.536 153.611 M232.754 156.019 L 231.667 157.222 232.870 156.134 C 233.532 155.536,234.074 154.994,234.074 154.931 C 234.074 154.645,233.768 154.896,232.754 156.019 M225.185 160.053 L 223.148 161.934 225.091 160.378 C 226.796 159.013,227.697 158.123,227.337 158.160 C 227.274 158.166,226.306 159.018,225.185 160.053 M232.384 159.352 L 231.296 160.556 232.500 159.468 C 233.162 158.869,233.704 158.328,233.704 158.264 C 233.704 157.978,233.398 158.230,232.384 159.352 M176.204 159.907 C 187.866 159.962,197.407 160.094,197.407 160.201 C 197.407 160.309,197.138 160.849,196.808 161.402 L 196.208 162.407 196.985 161.481 C 198.597 159.559,199.343 159.623,176.389 159.719 L 155.000 159.809 176.204 159.907 M226.464 161.574 L 225.000 163.148 226.574 161.684 C 228.038 160.323,228.318 160.000,228.038 160.000 C 227.978 160.000,227.269 160.708,226.464 161.574 M242.219 167.668 C 242.119 169.543,242.169 170.945,242.331 170.782 C 242.492 170.620,242.574 169.086,242.513 167.373 L 242.402 164.259 242.219 167.668 M224.606 166.019 L 223.519 167.222 224.722 166.134 C 225.384 165.536,225.926 164.994,225.926 164.931 C 225.926 164.645,225.620 164.896,224.606 166.019 M216.667 167.090 L 214.630 168.971 216.573 167.415 C 218.277 166.050,219.179 165.160,218.818 165.197 C 218.755 165.203,217.787 166.055,216.667 167.090 M239.706 174.537 C 237.452 178.355,236.967 179.259,237.177 179.259 C 237.268 179.259,238.133 177.884,239.100 176.204 C 240.066 174.523,241.100 172.773,241.397 172.315 C 241.694 171.856,241.841 171.481,241.724 171.481 C 241.606 171.481,240.698 172.856,239.706 174.537 M210.162 175.648 L 209.074 176.852 210.278 175.764 C 210.940 175.166,211.481 174.624,211.481 174.560 C 211.481 174.274,211.176 174.526,210.162 175.648 M217.222 176.667 C 216.906 177.278,216.731 177.778,216.833 177.778 C 216.935 177.778,217.277 177.278,217.593 176.667 C 217.909 176.056,218.084 175.556,217.982 175.556 C 217.880 175.556,217.538 176.056,217.222 176.667 M163.546 176.611 C 164.062 177.106,164.291 177.164,164.375 176.819 C 164.438 176.557,164.855 176.271,165.301 176.184 C 165.746 176.098,165.374 176.004,164.472 175.976 C 162.868 175.927,162.848 175.940,163.546 176.611 M176.574 176.203 C 180.088 176.264,182.963 176.404,182.963 176.515 C 182.963 176.625,182.787 177.079,182.572 177.524 C 182.195 178.306,182.201 178.309,182.757 177.614 C 184.047 176.005,183.732 175.921,176.759 176.009 L 170.185 176.092 176.574 176.203 M181.397 179.352 C 180.586 180.601,179.860 182.089,180.266 181.667 C 180.785 181.127,182.313 178.519,182.110 178.519 C 182.015 178.519,181.694 178.894,181.397 179.352 M202.963 181.892 L 200.556 184.143 203.056 182.026 C 205.253 180.166,205.810 179.613,205.463 179.636 C 205.412 179.639,204.287 180.655,202.963 181.892 M198.333 182.095 C 196.748 183.548,196.700 183.628,197.999 182.651 C 199.370 181.619,200.673 180.348,200.323 180.385 C 200.247 180.392,199.352 181.162,198.333 182.095 M176.830 185.150 C 176.944 185.335,177.371 185.399,177.778 185.292 C 178.797 185.026,178.706 184.815,177.571 184.815 C 177.049 184.815,176.716 184.966,176.830 185.150 M232.362 187.130 C 232.021 187.792,231.499 188.750,231.202 189.259 C 230.685 190.148,230.688 190.155,231.286 189.444 C 232.017 188.577,233.432 185.926,233.165 185.926 C 233.064 185.926,232.703 186.468,232.362 187.130 M210.556 188.148 C 210.240 188.759,210.064 189.259,210.166 189.259 C 210.268 189.259,210.610 188.759,210.926 188.148 C 211.242 187.537,211.417 187.037,211.315 187.037 C 211.213 187.037,210.872 187.537,210.556 188.148 M193.495 190.093 L 192.407 191.296 193.611 190.208 C 194.273 189.610,194.815 189.069,194.815 189.005 C 194.815 188.719,194.509 188.971,193.495 190.093 M184.444 197.832 L 182.037 200.084 184.354 198.152 C 186.398 196.447,187.326 195.529,186.966 195.568 C 186.903 195.575,185.769 196.594,184.444 197.832 M226.377 197.500 C 223.770 202.105,223.604 202.434,224.313 201.570 C 225.105 200.605,227.907 195.556,227.650 195.556 C 227.555 195.556,226.983 196.431,226.377 197.500 M174.630 198.889 C 174.314 199.500,174.138 200.000,174.240 200.000 C 174.342 200.000,174.684 199.500,175.000 198.889 C 175.316 198.278,175.491 197.778,175.389 197.778 C 175.288 197.778,174.946 198.278,174.630 198.889 M174.074 201.667 C 173.820 201.972,173.383 202.222,173.103 202.222 C 172.822 202.222,172.593 202.395,172.593 202.606 C 172.593 202.863,172.816 202.869,173.271 202.626 C 173.962 202.256,175.057 201.111,174.720 201.111 C 174.618 201.111,174.328 201.361,174.074 201.667 M177.758 203.611 L 176.481 205.000 177.870 203.724 C 179.163 202.536,179.430 202.222,179.147 202.222 C 179.085 202.222,178.460 202.847,177.758 203.611 M222.778 203.704 C 222.462 204.315,222.287 204.815,222.388 204.815 C 222.490 204.815,222.832 204.315,223.148 203.704 C 223.464 203.093,223.639 202.593,223.538 202.593 C 223.436 202.593,223.094 203.093,222.778 203.704 M169.421 210.833 L 168.333 212.037 169.537 210.949 C 170.659 209.935,170.911 209.630,170.625 209.630 C 170.561 209.630,170.019 210.171,169.421 210.833 M219.149 209.907 C 219.064 210.060,218.527 211.019,217.955 212.037 C 217.383 213.056,217.087 213.722,217.297 213.519 C 217.833 212.999,219.743 209.630,219.501 209.630 C 219.392 209.630,219.234 209.755,219.149 209.907 M171.940 212.099 C 171.683 212.202,171.286 212.647,171.057 213.088 C 170.667 213.838,170.703 213.831,171.616 212.991 C 172.153 212.497,172.593 212.039,172.593 211.972 C 172.593 211.837,172.587 211.838,171.940 212.099 M230.335 215.043 C 229.905 215.560,229.933 215.623,230.537 215.506 C 230.921 215.431,231.304 215.162,231.389 214.907 C 231.609 214.247,230.922 214.335,230.335 215.043 M167.946 216.759 L 166.481 218.333 168.056 216.869 C 169.519 215.508,169.800 215.185,169.520 215.185 C 169.459 215.185,168.751 215.894,167.946 216.759 M158.933 219.722 L 157.321 221.296 157.564 220.185 L 157.807 219.074 157.073 220.162 C 156.669 220.760,156.443 221.419,156.570 221.625 C 156.717 221.863,156.857 221.836,156.951 221.554 C 157.033 221.308,157.225 221.184,157.378 221.278 C 157.530 221.372,158.384 220.707,159.275 219.799 C 161.339 217.696,161.069 217.636,158.933 219.722 M235.926 218.264 C 235.926 218.328,236.468 218.869,237.130 219.468 L 238.333 220.556 237.246 219.352 C 236.232 218.230,235.926 217.978,235.926 218.264 M164.983 220.093 L 163.519 221.667 165.093 220.203 C 165.958 219.397,166.667 218.689,166.667 218.629 C 166.667 218.348,166.344 218.629,164.983 220.093 M192.592 219.352 C 192.593 219.505,201.009 219.630,211.296 219.630 L 230.000 219.630 230.000 227.963 L 230.000 236.296 195.926 236.296 L 161.852 236.296 161.852 230.074 C 161.852 225.620,161.983 223.704,162.315 223.333 C 162.709 222.890,162.681 222.887,162.121 223.311 C 161.530 223.759,161.475 224.442,161.566 230.145 L 161.667 236.481 195.926 236.481 L 230.185 236.481 230.185 227.963 L 230.185 219.444 211.389 219.259 C 201.051 219.157,192.592 219.199,192.592 219.352 M156.588 224.256 C 155.961 225.093,155.964 225.098,156.863 224.681 C 157.787 224.252,158.001 223.883,157.500 223.579 C 157.347 223.486,156.937 223.791,156.588 224.256 M245.432 229.506 C 245.296 229.642,245.185 234.725,245.185 240.802 L 245.185 251.852 208.193 251.852 C 170.767 251.852,169.427 251.896,170.620 253.090 C 171.044 253.513,171.481 253.354,171.481 252.778 C 171.481 252.288,175.844 252.222,208.519 252.222 L 245.556 252.222 245.556 241.111 C 245.556 231.295,245.623 230.000,246.133 230.000 C 246.451 230.000,246.607 229.833,246.481 229.630 C 246.217 229.202,245.787 229.151,245.432 229.506 M155.110 239.557 C 152.233 242.742,152.450 243.710,155.769 242.487 C 157.803 241.738,158.978 238.889,157.253 238.889 C 156.965 238.889,156.667 238.704,156.592 238.478 C 156.516 238.253,155.850 238.738,155.110 239.557 " stroke="none" fill="#6b6b6b" fill-rule="evenodd"/></g></svg>